<svg width="77" height="77" viewBox="0 0 77 77" fill="none" xmlns="http://www.w3.org/2000/svg">
<path d="M57.9793 3.90939L54.0699 7.81879L52.1152 6.93166C48.5968 5.32279 45.1084 4.33041 41.214 3.81918C38.5376 3.47334 33.1547 3.59364 30.5534 4.05975C21.0205 5.75883 12.916 10.6907 7.23238 18.2689C3.60867 23.1105 1.18785 28.9145 0.315759 34.9139C-0.105253 37.7106 -0.105253 42.868 0.315759 45.6647C1.26303 52.1603 3.68385 57.7838 7.81879 63.1517C9.08182 64.7907 12.1943 67.9031 13.8633 69.1963C19.0658 73.2259 24.9449 75.752 31.3353 76.6842C34.132 77.1053 39.2894 77.1053 42.0861 76.6842C48.5065 75.752 54.6864 73.0455 59.7836 68.9406C66.7454 63.3472 71.3314 55.5134 72.9402 46.4466C73.4064 43.8453 73.5267 38.4624 73.1808 35.786C72.6696 31.8916 71.6772 28.4032 70.0683 24.8848L69.1812 22.9301L73.0906 19.0207C76.9549 15.1414 77 15.0963 77 14.4648C77 13.9836 76.9248 13.7881 76.6542 13.6227C76.4587 13.4874 74.94 13.1867 73.0906 12.9311C71.3163 12.6604 69.7676 12.4198 69.6473 12.3898C69.512 12.3447 69.7225 12.0289 70.2939 11.4425C71.587 10.0742 71.5569 9.96895 69.2865 7.69849C67.0311 5.44308 66.9258 5.413 65.5575 6.70612C64.9711 7.27749 64.6553 7.48799 64.6102 7.35267C64.5802 7.23238 64.3396 5.68365 64.084 3.90939C63.8133 2.04491 63.5126 0.541298 63.3923 0.345833C63.2119 0.0751801 63.0164 0 62.5352 0C61.9037 0 61.8586 0.0451126 57.9793 3.90939ZM62.5653 9.3224C62.5653 9.62312 61.8285 10.4501 59.1822 13.0814C56.9869 15.2767 55.784 16.3743 55.7389 16.224C55.7088 16.1187 55.4833 14.7354 55.2578 13.1867L54.8518 10.3449L58.2951 6.90158L61.7383 3.45831L62.1443 6.20992C62.3699 7.71353 62.5503 9.11189 62.5653 9.3224ZM40.5374 6.02949C42.5973 6.23999 45.3038 6.8264 47.3788 7.51807C49.3937 8.17965 52.3408 9.44269 52.431 9.68327C52.4911 9.87874 53.694 17.878 53.694 18.1486C53.694 18.2388 52.9572 17.8328 52.0551 17.2314C49.0629 15.2316 45.6046 13.7881 42.026 13.0664C39.9961 12.6604 35.4853 12.5101 33.2749 12.7657C20.7348 14.2693 10.7508 24.1631 9.11189 36.7333C6.94669 53.3782 19.8326 68.0836 36.5829 68.1136C50.4462 68.1287 62.0691 58.1447 64.1441 44.4167C64.4448 42.4169 64.4448 38.3722 64.1441 36.3122C63.5126 32.1172 62.0992 28.4333 59.7836 24.96C59.1672 24.0428 58.7612 23.306 58.8514 23.306C59.122 23.306 67.1213 24.5089 67.3167 24.569C67.5573 24.6592 68.8204 27.6063 69.4819 29.6212C70.1285 31.5759 70.7299 34.2824 70.9705 36.3574C71.181 38.1166 71.1961 42.5222 70.9855 44.2062C69.091 59.6483 57.5282 71.7674 42.2214 74.3536C39.0338 74.8799 34.3726 74.8799 31.1849 74.3536C18.5997 72.2185 8.26987 63.5276 4.1199 51.5739C2.81176 47.8149 2.22535 44.3265 2.24038 40.2216C2.25542 28.6438 7.99922 17.9682 17.6825 11.5477C24.4337 7.06698 32.2525 5.18746 40.5374 6.02949ZM53.6639 24.7795C45.5294 32.9141 38.7631 39.6352 38.6128 39.7104C38.0564 40.0262 37.1543 39.3195 37.1543 38.5977C37.1543 38.5075 43.8754 31.7112 52.0701 23.5015L67.001 8.57059L67.7077 9.27729L68.4294 9.99902L53.6639 24.7795ZM70.7901 14.8557L73.5417 15.2617L70.0984 18.7049L66.6551 22.1482L63.8133 21.7422C62.2646 21.5167 60.8813 21.3062 60.776 21.2611C60.6257 21.216 61.7083 20.0281 63.9186 17.8178C66.5499 15.1715 67.3769 14.4347 67.6776 14.4347C67.8881 14.4497 69.2865 14.6301 70.7901 14.8557ZM39.0037 14.9609C42.8078 15.2166 47.2134 16.7653 50.8071 19.141L52.2054 20.0582L49.7996 22.464L47.3939 24.8698L46.8225 24.539C43.3642 22.479 40.4622 21.652 36.7032 21.652C32.7036 21.652 29.5159 22.5993 26.2531 24.7795C23.0053 26.9447 20.389 30.2978 19.0808 33.9816C18.3591 36.0416 18.1787 37.0189 18.1035 39.6202C18.0133 42.447 18.1937 43.8904 18.9154 46.0857C20.2236 50.1004 22.8248 53.5286 26.2531 55.8141C28.5085 57.3177 30.6587 58.1898 33.3802 58.701C35.0191 59.0168 38.3722 59.0168 40.0262 58.7161C47.7547 57.2876 53.694 51.3484 55.1224 43.6198C55.4232 41.9809 55.4232 38.6128 55.1224 36.9738C54.7014 34.7184 53.8143 32.448 52.461 30.1775L52.1302 29.6061L54.536 27.2004L56.9418 24.7946L57.859 26.1929C60.0844 29.5761 61.4827 33.305 61.9639 37.1843C62.2345 39.2593 62.0842 43.5597 61.6932 45.3339C60.6106 50.1756 58.4304 54.3857 55.2728 57.7087C51.1379 62.0691 46.5518 64.4899 40.4622 65.5876C39.7706 65.7079 38.2519 65.7831 36.4776 65.768C33.9816 65.768 33.3802 65.7079 31.7112 65.362C24.9449 63.9336 19.2613 60.1295 15.4722 54.506C10.1494 46.597 9.72837 36.1769 14.4046 27.9071C18.0584 21.4415 24.4187 16.7954 31.651 15.3218C33.2148 15.0061 35.9814 14.7655 37.1543 14.8407C37.5302 14.8557 38.3572 14.9158 39.0037 14.9609ZM39.2894 24.0728C40.778 24.2683 42.5973 24.8848 44.2814 25.7418L45.7549 26.5087L43.274 28.9897L40.793 31.4706L39.8457 31.1248C38.5075 30.6587 35.6807 30.5384 34.2974 30.8992C31.5909 31.5909 29.1851 33.5155 27.9973 35.9363C25.3359 41.3794 27.9672 47.7698 33.6057 49.5591C35.2146 50.0703 37.1392 50.1756 38.6579 49.8598C42.2365 49.108 45.1836 46.2662 46.1008 42.7026C46.4616 41.3193 46.3413 38.4925 45.8752 37.1543L45.5294 36.207L48.0254 33.711L50.5063 31.23L51.3484 32.9442C52.5813 35.4552 52.9572 36.8987 53.0475 39.4999C53.1828 42.7477 52.7167 44.9731 51.3484 47.6796C49.0629 52.2505 44.7325 55.4983 39.6653 56.4607C38.1316 56.7463 35.2747 56.7463 33.7411 56.4607C27.0199 55.1826 21.8174 49.9801 20.5393 43.2589C20.2537 41.7102 20.2537 38.688 20.5393 37.2595C21.2761 33.7561 22.9602 30.6737 25.4261 28.3882C29.2603 24.7946 33.9816 23.321 39.2894 24.0728ZM38.4173 33.0945L38.9887 33.2599L37.2595 35.0041C35.4401 36.8535 35.1545 37.2896 34.9891 38.282C34.6282 40.372 36.628 42.3718 38.718 42.0109C39.7104 41.8455 40.1465 41.5599 41.9959 39.7254L43.7551 37.9963L43.9205 38.6579C44.0408 39.0639 44.0709 39.8908 44.0408 40.778C43.9807 42.056 43.9055 42.3568 43.4243 43.3642C42.6575 44.9881 41.5147 46.1459 39.8758 46.9578L38.6128 47.5893H36.7032H34.8086L33.5306 46.9578C31.8916 46.1459 30.7639 45.0031 29.967 43.3492C29.4107 42.1914 29.4107 42.1613 29.4107 40.2968C29.4107 38.4323 29.4107 38.4023 29.967 37.2445C30.8992 35.2898 32.6434 33.7711 34.6583 33.1396C35.4251 32.899 37.6354 32.869 38.4173 33.0945Z" fill="#60C2F8"/>
</svg>
